<?xml version="1.0" encoding="utf-8"?>
<!-- Generator: Adobe Illustrator 18.0.0, SVG Export Plug-In . SVG Version: 6.00 Build 0)  -->
<!DOCTYPE svg PUBLIC "-//W3C//DTD SVG 1.1//EN" "http://www.w3.org/Graphics/SVG/1.1/DTD/svg11.dtd">
<svg version="1.1" id="Layer_1" xmlns="http://www.w3.org/2000/svg" xmlns:xlink="http://www.w3.org/1999/xlink" x="0px" y="0px"
	 width="30px" height="30px" viewBox="0 0 30 30" enable-background="new 0 0 30 30" xml:space="preserve">
<g>
	<path fill="#4D4D4F" d="M5.2,25.3c-0.7,0-1.5,0-2.3,0c-0.3,0-0.5-0.2-0.5-0.5V22c0-0.1,0.1-0.3,0.2-0.4c0.1-0.1,0.3-0.1,0.4-0.1
		c4.6,0.8,7.7,0.2,9.3-1.8c1.4-1.7,1.2-4.1,1.1-5H3c-0.3,0-0.5-0.2-0.5-0.5V5.1c0-0.3,0.2-0.5,0.5-0.5h16.2c0.3,0,0.5,0.2,0.5,0.5
		v7.4c0,0.2-0.1,0.3-0.2,0.4c-1.5,0.9-2.1,2.2-2.2,5.1l0,3.9c0,0.1,0,0.2-0.1,0.3C15,24.4,11.4,25.3,5.2,25.3z M3.5,24.3
		c6.8,0.2,10.7-0.6,12.8-2.6V18c0.1-2.6,0.6-4.6,2.4-5.8V5.6H3.5v8.2h10.4c0.2,0,0.4,0.2,0.5,0.4c0,0.1,0.8,3.6-1.2,6.2
		c-1.8,2.2-5,3-9.7,2.2V24.3z M16,13.8c-0.2,0-0.3-0.1-0.4-0.2l-1.1-1.7H6.7c-0.3,0-0.5-0.2-0.5-0.5V7.9c0-0.3,0.2-0.5,0.5-0.5H16
		c0.3,0,0.5,0.2,0.5,0.5v5.5c0,0.2-0.1,0.4-0.3,0.5C16.1,13.8,16,13.8,16,13.8z M7.2,11h7.6c0.2,0,0.3,0.1,0.4,0.2l0.3,0.5V8.4H7.2
		V11z"/>
	<path fill="#4D4D4F" d="M27,24.3H16.8c-0.3,0-0.5-0.2-0.5-0.5V18c0.3-5.1,1.9-7.4,10.7-7.1c0.3,0,0.5,0.2,0.5,0.5v1.8
		c0,0.1-0.1,0.3-0.2,0.4c-0.1,0.1-0.3,0.1-0.4,0.1c-2.8-0.5-4.8-0.1-5.7,1.1c-0.8,1-0.7,2.2-0.7,2.8H27c0.3,0,0.5,0.2,0.5,0.5v5.7
		C27.5,24.1,27.3,24.3,27,24.3z M17.3,23.3h9.3v-4.8h-6.4c-0.2,0-0.4-0.2-0.5-0.4c0-0.1-0.5-2.4,0.8-4c1.1-1.4,3.2-1.9,6.1-1.5v-0.7
		c-7.7-0.2-9,1.6-9.3,6.2L17.3,23.3z M24.5,22.5h-5.6c-0.3,0-0.5-0.2-0.5-0.5v-3.1c0-0.2,0.1-0.4,0.3-0.5c0.2-0.1,0.4,0,0.5,0.2
		l0.6,0.9h4.7c0.3,0,0.5,0.2,0.5,0.5v2C25,22.3,24.7,22.5,24.5,22.5z M19.3,21.6H24v-1.1h-4.5c-0.1,0-0.1,0-0.2-0.1V21.6z"/>
</g>
</svg>
