<?xml version="1.0" encoding="utf-8"?>
<!-- Generator: Adobe Illustrator 18.0.0, SVG Export Plug-In . SVG Version: 6.00 Build 0)  -->
<!DOCTYPE svg PUBLIC "-//W3C//DTD SVG 1.1//EN" "http://www.w3.org/Graphics/SVG/1.1/DTD/svg11.dtd">
<svg version="1.1" id="Layer_1" xmlns="http://www.w3.org/2000/svg" xmlns:xlink="http://www.w3.org/1999/xlink" x="0px" y="0px"
	 width="40px" height="40px" viewBox="0 0 40 40" enable-background="new 0 0 40 40" xml:space="preserve">
<g>
	<path fill="none" stroke="#262626" stroke-width="1.5" stroke-miterlimit="10" d="M19.6,22.8c5.6,1.1,9.2,3.4,10.6,6.7
		c-4.2,1.3-7.7,1.9-10.6,1.9S13.2,30.9,9,29.6C10.5,26.2,14,23.9,19.6,22.8z M19.6,21.8c-0.7,0-1.4-0.2-2-0.5
		c-0.6-0.3-1.1-0.9-1.5-1.5c-0.4-0.7-0.8-1.5-1-2.4c-0.2-0.9-0.4-2-0.4-3.2c0-2.4,1.6-4,4.8-4.8c3.2,0.8,4.8,2.4,4.8,4.8
		c0,1.2-0.1,2.3-0.4,3.2c-0.2,0.9-0.6,1.8-1,2.4c-0.4,0.7-0.9,1.2-1.5,1.5C21,21.7,20.4,21.8,19.6,21.8z"/>
</g>
</svg>
