<?xml version="1.0" encoding="utf-8"?>
<!-- Generator: Adobe Illustrator 18.0.0, SVG Export Plug-In . SVG Version: 6.00 Build 0)  -->
<!DOCTYPE svg PUBLIC "-//W3C//DTD SVG 1.1//EN" "http://www.w3.org/Graphics/SVG/1.1/DTD/svg11.dtd">
<svg version="1.1" id="Layer_1" xmlns="http://www.w3.org/2000/svg" xmlns:xlink="http://www.w3.org/1999/xlink" x="0px" y="0px"
	 width="30px" height="30px" viewBox="0 0 30 30" enable-background="new 0 0 30 30" xml:space="preserve">
<g>
	<path fill="#262626" d="M27,8.3h-3.2V6.1c0-0.4-0.3-0.6-0.6-0.6h-9.1V4.6c0-0.4-0.3-0.6-0.6-0.6H3C2.6,4,2.4,4.2,2.4,4.6v20.2
		c0,0.4,0.3,0.6,0.6,0.6h24c0.4,0,0.6-0.3,0.6-0.6V8.9C27.6,8.5,27.4,8.3,27,8.3z M14.1,8.3V6.7h3.7v1.5H14.1z M19,8.3V6.7h3.6v1.5
		H19z M13.5,9.4h13v14.8H3.6v-19h9.2v3.7C12.9,9.2,13.1,9.4,13.5,9.4z"/>
	<path fill="#262626" d="M15.1,13.9h7.6c0.3,0,0.5-0.2,0.5-0.5s-0.2-0.5-0.5-0.5h-7.6c-0.3,0-0.5,0.2-0.5,0.5S14.8,13.9,15.1,13.9z"
		/>
	<path fill="#262626" d="M19.5,19.6h-4.4c-0.3,0-0.5,0.2-0.5,0.5s0.2,0.5,0.5,0.5h4.4c0.3,0,0.5-0.2,0.5-0.5S19.7,19.6,19.5,19.6z"
		/>
	<path fill="#262626" d="M14.6,15.3c0,0.3,0.2,0.5,0.5,0.5h9.1c0.3,0,0.5-0.2,0.5-0.5s-0.2-0.5-0.5-0.5h-9.1
		C14.8,14.8,14.6,15,14.6,15.3z"/>
	<path fill="#262626" d="M22.4,16.6h-7.3c-0.3,0-0.5,0.2-0.5,0.5s0.2,0.5,0.5,0.5h7.3c0.3,0,0.5-0.2,0.5-0.5S22.7,16.6,22.4,16.6z"
		/>
	<path fill="#262626" d="M12.5,12.7H5.8c-0.2,0-0.4,0.2-0.4,0.4v6.8c0,0.2,0.2,0.4,0.4,0.4h6.7c0.2,0,0.4-0.2,0.4-0.4v-6.8
		C12.9,12.9,12.7,12.7,12.5,12.7z M6.1,18.8l2.1-2l2.4,2.4c0.1,0.1,0.2,0.1,0.3,0.1s0.2,0,0.3-0.1l0.6-0.6l0.3,0.3v0.6H6.1V18.8z
		 M11.4,17.6l-0.6,0.6l-2.4-2.4c-0.1-0.1-0.2-0.1-0.3-0.1s-0.2,0-0.3,0.1L6,17.6v-4.2h6v4.2l0,0c-0.1-0.1-0.2-0.1-0.3-0.1
		S11.5,17.5,11.4,17.6z"/>
	<path fill="#262626" d="M10.3,16.6L10.3,16.6c0.7,0,1.2-0.5,1.2-1.2c0-0.3-0.1-0.6-0.4-0.9c-0.2-0.2-0.5-0.4-0.9-0.4
		c-0.7,0-1.2,0.5-1.2,1.2c0,0.3,0.1,0.6,0.4,0.9C9.6,16.5,9.9,16.6,10.3,16.6z M10.3,14.9c0.1,0,0.3,0.1,0.4,0.1
		c0.1,0.1,0.1,0.2,0.1,0.4c0,0.3-0.2,0.5-0.5,0.5v0.4v-0.4c-0.1,0-0.3-0.1-0.4-0.1c-0.1-0.1-0.1-0.2-0.1-0.4
		C9.7,15.1,10,14.9,10.3,14.9z"/>
</g>
</svg>
