<?xml version="1.0" encoding="utf-8"?>
<!-- Generator: Adobe Illustrator 18.0.0, SVG Export Plug-In . SVG Version: 6.00 Build 0)  -->
<!DOCTYPE svg PUBLIC "-//W3C//DTD SVG 1.1//EN" "http://www.w3.org/Graphics/SVG/1.1/DTD/svg11.dtd">
<svg version="1.1" id="Layer_1" xmlns="http://www.w3.org/2000/svg" xmlns:xlink="http://www.w3.org/1999/xlink" x="0px" y="0px"
	 width="30px" height="30px" viewBox="0 0 30 30" enable-background="new 0 0 30 30" xml:space="preserve">
<g>
	<path fill="#262626" d="M27,5.3H3c-0.4,0-0.6,0.3-0.6,0.6v18.2c0,0.4,0.3,0.6,0.6,0.6h24c0.4,0,0.6-0.3,0.6-0.5V5.9
		C27.6,5.5,27.4,5.3,27,5.3z M26.5,6.4v17.2H3.6V6.4H26.5z"/>
	<path fill="#262626" d="M8.1,20.6l5.1-4.9l5.2,5.2c0.1,0.1,0.2,0.1,0.3,0.1c0.2,0,0.3-0.1,0.3-0.2l1.5-1.5l1.1,1.2
		c0.2,0.2,0.6,0.2,0.9,0c0.2-0.2,0.2-0.6,0-0.9l-1.5-1.6c-0.2-0.2-0.6-0.3-0.8-0.1l-1.5,1.5l-5.3-5.3h-0.1c0,0-0.1,0-0.1,0
		c-0.1,0-0.1-0.1-0.2-0.1c-0.1,0-0.3,0-0.4,0.1l-5.5,5.5C7,20,7,20.3,7.2,20.6C7.5,20.8,7.8,20.8,8.1,20.6z"/>
	<path fill="#262626" d="M21.1,15.1c1.7,0,3-1.4,3-3c0-1.7-1.4-3-3-3s-3,1.4-3,3C18.1,13.8,19.5,15.1,21.1,15.1z M21.1,10.3
		c1,0,1.8,0.8,1.8,1.8c0,1-0.8,1.8-1.8,1.8s-1.8-0.8-1.8-1.8C19.4,11.1,20.1,10.3,21.1,10.3z"/>
</g>
</svg>
