<?xml version="1.0" encoding="utf-8"?>
<!-- Generator: Adobe Illustrator 18.0.0, SVG Export Plug-In . SVG Version: 6.00 Build 0)  -->
<!DOCTYPE svg PUBLIC "-//W3C//DTD SVG 1.1//EN" "http://www.w3.org/Graphics/SVG/1.1/DTD/svg11.dtd">
<svg version="1.1" id="Layer_1" xmlns="http://www.w3.org/2000/svg" xmlns:xlink="http://www.w3.org/1999/xlink" x="0px" y="0px"
	 width="30px" height="30px" viewBox="0 0 30 30" enable-background="new 0 0 30 30" xml:space="preserve">
<path fill="#262626" d="M29.3,23.8c-0.2-0.5-0.5-0.9-0.8-1.3c-0.3-0.4-0.7-0.7-1.2-0.9c-0.3-0.2-0.5-0.3-0.8-0.3
	c0.1-0.4,0.1-0.7,0.1-1.1c0-0.6-0.1-1.2-0.3-1.7c-0.1-0.6-0.3-1.1-0.6-1.7c-0.3-0.5-0.7-1-1.1-1.4l-0.1-0.1l0.1-0.1
	c0.4-0.4,0.8-0.9,1.1-1.5c0.3-0.5,0.5-1.1,0.7-1.6c0.2-0.6,0.2-1.2,0.2-1.8c0-0.4-0.1-0.7-0.1-1.1C26.7,9,27,8.9,27.3,8.7
	c0.5-0.3,0.9-0.6,1.2-1c0.3-0.4,0.6-0.8,0.8-1.3c0.2-0.5,0.3-1,0.3-1.6c0-0.6-0.1-1.2-0.3-1.7c-0.2-0.5-0.5-1-1-1.4
	c-0.4-0.4-0.8-0.7-1.4-0.9c-1-0.5-2.3-0.5-3.3-0.1c-0.5,0.2-0.9,0.5-1.3,0.8c-0.4,0.3-0.7,0.7-1,1.2c-0.1,0.3-0.3,0.5-0.3,0.8
	c-0.4-0.1-0.7-0.1-1.1-0.1l-0.2,0c-0.6,0-1.1,0.1-1.6,0.2C17.6,3.8,17,4,16.4,4.3c-0.5,0.3-1.1,0.7-1.5,1.2l-0.1,0.1l-0.1-0.1
	c-0.4-0.4-0.9-0.8-1.4-1.1c-0.5-0.3-1.1-0.5-1.6-0.6c-0.6-0.2-1.1-0.2-1.7-0.3l-0.2,0c-0.3,0-0.6,0-0.8,0.1C8.9,3.2,8.7,3,8.6,2.7
	C8.3,2.3,8,1.9,7.6,1.6C7.3,1.3,6.8,1,6.3,0.8c-1-0.4-2.2-0.4-3.3,0.1c-0.5,0.2-1,0.5-1.3,0.9C1.3,2.1,1,2.6,0.7,3.2
	C0.5,3.7,0.4,4.3,0.4,4.9c0,0.5,0.1,1,0.3,1.5c0.2,0.5,0.4,0.9,0.7,1.3c0.3,0.4,0.7,0.7,1.1,1C2.7,8.8,3,8.9,3.2,9
	c-0.1,0.4-0.1,0.8-0.1,1.2c0,0.6,0,1.2,0.2,1.8c0.2,0.6,0.4,1.2,0.7,1.7c0.3,0.5,0.7,1,1.1,1.5l0.1,0.1L5,15.3
	c-0.4,0.4-0.8,0.9-1.1,1.5c-0.3,0.5-0.5,1.1-0.7,1.6c-0.2,0.6-0.2,1.2-0.2,1.8c0,0.4,0,0.8,0.1,1.1c-0.3,0.1-0.5,0.2-0.8,0.4
	c-0.4,0.3-0.8,0.6-1,1C1,23,0.8,23.4,0.6,23.9c-0.2,0.5-0.3,1-0.3,1.5c0,0.6,0.1,1.2,0.4,1.8c0.2,0.5,0.5,1,0.9,1.4
	C2,28.9,2.5,29.2,3,29.4c0.5,0.2,1.1,0.4,1.7,0.4c0.5,0,1.1-0.1,1.5-0.3c0.5-0.2,0.9-0.4,1.2-0.7c0.4-0.3,0.7-0.7,1-1.1
	c0.2-0.2,0.3-0.5,0.4-0.8c0.9,0.1,1.9,0.1,2.8-0.2c0.6-0.1,1.1-0.3,1.7-0.6c0.5-0.3,1-0.7,1.4-1.1l0.1-0.1l0.1,0.1
	c0.4,0.4,1,0.8,1.5,1.1c0.6,0.3,1.1,0.5,1.7,0.7c0.5,0.1,1,0.2,1.6,0.2l0.2,0c0.4,0,0.8-0.1,1.2-0.2c0.1,0.3,0.2,0.5,0.4,0.8
	c0.3,0.4,0.6,0.8,0.9,1.1c0.4,0.3,0.8,0.6,1.3,0.8c0.5,0.2,1,0.3,1.5,0.3c0.6,0,1.2-0.1,1.7-0.4c0.5-0.2,1-0.5,1.4-0.9
	c0.4-0.4,0.7-0.8,0.9-1.4c0.2-0.5,0.4-1.1,0.4-1.8C29.6,24.8,29.5,24.3,29.3,23.8z M18.5,9.2l0.1-0.1c0.2-0.2,0.3-0.3,0.5-0.3
	c0.4-0.2,0.9-0.2,1.3,0C20.6,8.8,20.8,9,21,9.1c0.2,0.2,0.3,0.3,0.3,0.5c0.1,0.2,0.1,0.4,0.1,0.7c0,0.2,0,0.4-0.1,0.7
	c-0.1,0.2-0.2,0.4-0.3,0.5l-0.1,0.1L18.5,9.2z M14.8,17.6l-2.4-2.4l2.4-2.4l2.4,2.4L14.8,17.6z M17,5.4c0.4-0.2,0.9-0.4,1.4-0.5
	c0.4-0.1,0.8-0.2,1.3-0.2l0.2,0c0.5,0,1,0.1,1.5,0.2L22,5.1l0.1-0.7c0.1-0.4,0.2-0.7,0.4-1.1c0.2-0.3,0.4-0.6,0.7-0.9
	c0.3-0.2,0.6-0.4,0.9-0.6c0.7-0.3,1.6-0.3,2.3,0c0.4,0.2,0.7,0.4,1,0.7c0.3,0.3,0.5,0.6,0.7,0.9c0.2,0.4,0.2,0.8,0.2,1.3
	c0,0.4-0.1,0.8-0.2,1.1c-0.1,0.4-0.3,0.7-0.6,0.9c-0.2,0.3-0.5,0.5-0.9,0.7C26.3,7.8,26,7.9,25.6,8l-0.7,0.1l0.2,0.7
	c0.1,0.5,0.2,0.9,0.2,1.4c0,0.5,0,1-0.2,1.4c-0.1,0.5-0.3,0.9-0.6,1.4c-0.2,0.3-0.4,0.7-0.7,1l-1.9-1.9c0.2-0.2,0.3-0.5,0.4-0.8
	c0.1-0.4,0.2-0.7,0.2-1.1c0-0.4-0.1-0.7-0.2-1.1c-0.1-0.4-0.4-0.7-0.7-1c-0.3-0.3-0.6-0.5-1-0.6c-0.7-0.3-1.5-0.3-2.2,0
	c-0.4,0.1-0.7,0.4-1,0.6L11.9,14L10,12.2l5.8-5.8C16.2,6,16.6,5.7,17,5.4z M8.8,11.6l-0.1-0.1c-0.2-0.2-0.3-0.3-0.3-0.5
	c-0.1-0.2-0.1-0.4-0.1-0.7c0-0.2,0-0.4,0.1-0.6c0.1-0.2,0.2-0.4,0.4-0.6C8.9,9,9.1,8.8,9.3,8.8c0.4-0.2,0.9-0.2,1.3,0
	c0.2,0.1,0.4,0.2,0.5,0.4l0.1,0.1L8.8,11.6z M5,13c-0.2-0.4-0.4-0.9-0.6-1.4c-0.1-0.5-0.1-1-0.1-1.5c0-0.5,0.1-1,0.2-1.5L4.7,8
	L4.1,7.9C3.7,7.8,3.4,7.7,3.1,7.5C2.8,7.4,2.6,7.1,2.4,6.9C2.2,6.6,2,6.3,1.9,5.9c-0.1-0.3-0.2-0.7-0.2-1c0-0.5,0.1-0.9,0.2-1.3
	c0.1-0.4,0.4-0.7,0.7-1c0.3-0.3,0.6-0.5,1-0.7C4,1.8,4.4,1.8,4.8,1.8c0.4,0,0.8,0.1,1.1,0.2c0.3,0.1,0.7,0.3,1,0.6
	C7.1,2.8,7.3,3,7.5,3.3c0.2,0.3,0.3,0.7,0.4,1L8,5l0.6-0.1C9,4.8,9.4,4.7,9.8,4.7l0.2,0c0.5,0,0.9,0.1,1.4,0.2
	c0.4,0.1,0.9,0.3,1.3,0.5c0.3,0.2,0.6,0.4,0.9,0.7L11.7,8c-0.2-0.2-0.5-0.3-0.7-0.4c-0.7-0.3-1.5-0.3-2.2,0C8.4,7.7,8.1,8,7.8,8.3
	c-0.3,0.3-0.5,0.6-0.6,1C7.1,9.6,7,9.9,7,10.3c0,0.4,0.1,0.7,0.2,1.1c0.1,0.4,0.4,0.7,0.6,1l5.8,5.8L11.7,20l-5.8-5.8
	C5.6,13.9,5.3,13.5,5,13z M11.2,21.3l-0.1,0.1c-0.2,0.2-0.4,0.3-0.6,0.4c-0.4,0.2-0.8,0.2-1.2,0c-0.2-0.1-0.4-0.2-0.6-0.4
	c-0.2-0.2-0.3-0.3-0.4-0.5c-0.1-0.2-0.1-0.4-0.1-0.6c0-0.2,0-0.5,0.1-0.7s0.2-0.4,0.4-0.5l0.1-0.1L11.2,21.3z M12.7,25.1
	c-0.4,0.2-0.9,0.4-1.3,0.5c-0.9,0.3-1.9,0.2-2.8,0l-0.6-0.1l-0.1,0.6c-0.1,0.3-0.2,0.6-0.4,0.9c-0.2,0.3-0.4,0.6-0.7,0.8
	c-0.2,0.2-0.5,0.4-0.8,0.5c-0.7,0.2-1.6,0.3-2.3-0.1c-0.4-0.2-0.7-0.4-1-0.7c-0.3-0.3-0.5-0.6-0.7-1c-0.2-0.4-0.2-0.8-0.2-1.3
	c0-0.4,0.1-0.7,0.2-1c0.1-0.3,0.3-0.6,0.5-0.9c0.2-0.3,0.5-0.5,0.8-0.7c0.3-0.2,0.6-0.3,0.9-0.4l0.7-0.1l-0.2-0.7
	c-0.1-0.5-0.2-0.9-0.2-1.4s0.1-1,0.2-1.4c0.1-0.5,0.3-0.9,0.6-1.4c0.2-0.3,0.4-0.6,0.7-0.9l1.9,1.9c-0.2,0.2-0.3,0.5-0.4,0.7
	C7.1,19.4,7,19.8,7,20.2c0,0.4,0.1,0.7,0.2,1.1c0.1,0.4,0.4,0.7,0.6,0.9c0.3,0.3,0.6,0.5,1,0.6c0.7,0.3,1.5,0.3,2.2,0
	c0.3-0.2,0.6-0.4,0.9-0.6l5.8-5.8l1.9,1.9l-5.8,5.8C13.5,24.5,13.1,24.8,12.7,25.1z M20.9,18.9L21,19c0.2,0.2,0.3,0.3,0.3,0.5
	c0.1,0.2,0.1,0.4,0.1,0.7c0,0.2,0,0.4-0.1,0.6c-0.1,0.2-0.2,0.4-0.3,0.5c-0.2,0.2-0.4,0.3-0.7,0.4c-0.4,0.2-0.8,0.2-1.2,0
	c-0.2-0.1-0.4-0.2-0.6-0.4l-0.1-0.1L20.9,18.9z M28.1,26.6c-0.2,0.4-0.4,0.7-0.7,1c-0.3,0.3-0.6,0.5-1,0.7c-0.7,0.3-1.6,0.3-2.3,0.1
	c-0.3-0.1-0.6-0.3-0.9-0.6c-0.3-0.2-0.5-0.5-0.7-0.8c-0.2-0.3-0.3-0.7-0.4-1L22,25.3l-0.6,0.2c-0.4,0.2-0.9,0.2-1.4,0.3l-0.2,0
	c-0.4,0-0.9-0.1-1.3-0.2c-0.5-0.1-1-0.3-1.5-0.6c-0.4-0.2-0.7-0.4-1-0.7l1.9-1.9c0.2,0.2,0.5,0.3,0.7,0.4c0.7,0.3,1.5,0.3,2.2,0
	c0.3-0.2,0.6-0.4,1-0.6c0.3-0.3,0.5-0.6,0.6-0.9c0.1-0.3,0.2-0.7,0.2-1.1c0-0.4-0.1-0.7-0.2-1.1c-0.1-0.4-0.4-0.7-0.6-1L16,12.3
	l1.9-1.9l5.8,5.8c0.4,0.4,0.7,0.8,0.9,1.2c0.2,0.4,0.4,0.9,0.5,1.3c0.1,0.5,0.2,0.9,0.2,1.4c0,0.5,0,0.9-0.2,1.4L25,22.3l0.8,0.1
	c0.4,0,0.7,0.1,1,0.3c0.3,0.2,0.6,0.4,0.9,0.7c0.2,0.3,0.4,0.6,0.6,0.9c0.1,0.3,0.2,0.7,0.2,1.1C28.4,25.8,28.3,26.2,28.1,26.6z"/>
</svg>
