<?xml version="1.0" encoding="utf-8"?>
<!-- Generator: Adobe Illustrator 18.0.0, SVG Export Plug-In . SVG Version: 6.00 Build 0)  -->
<!DOCTYPE svg PUBLIC "-//W3C//DTD SVG 1.1//EN" "http://www.w3.org/Graphics/SVG/1.1/DTD/svg11.dtd">
<svg version="1.1" id="Layer_1" xmlns="http://www.w3.org/2000/svg" xmlns:xlink="http://www.w3.org/1999/xlink" x="0px" y="0px"
	 width="30px" height="30px" viewBox="0 0 30 30" enable-background="new 0 0 30 30" xml:space="preserve">
<g>
	<path fill="#262626" d="M17.5,13.2C17.5,13.2,17.5,13.2,17.5,13.2c1.6,0,3-1.3,3-2.9c0-0.8-0.3-1.5-0.9-2.1
		c-0.6-0.6-1.3-0.9-2.1-0.9c-1.7,0-3,1.3-3,2.9c0,0.8,0.3,1.5,0.9,2.1C15.9,12.9,16.7,13.2,17.5,13.2z M17.5,8.2
		c0.5,0,1,0.2,1.4,0.6c0.4,0.4,0.6,0.9,0.6,1.4c0,1.1-0.9,2-2,2v0.5l0-0.5c-0.5,0-1-0.2-1.4-0.6c-0.4-0.4-0.6-0.9-0.6-1.4
		C15.5,9.1,16.4,8.2,17.5,8.2z"/>
	<path fill="#262626" d="M26.3,5.2h-1.9V3.7c0-0.3-0.2-0.5-0.5-0.5H4.7c-0.3,0-0.5,0.2-0.5,0.5v1.4H2.3C2,5.2,1.8,5.4,1.8,5.7V21
		c0,0.3,0.2,0.5,0.5,0.5h1.9V23c0,0.3,0.2,0.5,0.5,0.5h19.2c0.3,0,0.5-0.2,0.5-0.5v-1.4h1.9c0.3,0,0.5-0.2,0.5-0.5V5.7
		C26.8,5.4,26.6,5.2,26.3,5.2z M23.5,4.2v1.4c0,0,0,0,0,0s0,0,0,0v12.7l-1.2-1.2C22.2,17.1,22.1,17,22,17c-0.1,0-0.3,0-0.3,0.1
		l-2.2,2.2l-7.2-7.1c-0.2-0.2-0.5-0.2-0.7,0l-6.3,6.3V4.2H23.5z M2.8,20.6V6.1h1.5v13.5c0,0,0,0.1,0,0.1v0.9H2.8z M5.2,22.5v-2.6
		l6.7-6.6l7.2,7.1c0.1,0.1,0.2,0.1,0.3,0.1s0.2,0,0.3-0.1l2.2-2.2l1.5,1.6V21c0,0,0,0,0,0s0,0,0,0v1.4H5.2z M25.9,20.6h-1.4v-0.9
		c0,0,0,0,0,0V6.1h1.4V20.6z"/>
	<path fill="#262626" d="M11.3,25.8c-0.5,0-1,0.4-1,1c0,0.5,0.4,1,1,1s1-0.4,1-1C12.2,26.3,11.8,25.8,11.3,25.8z M11.3,27.3
		c-0.3,0-0.5-0.2-0.5-0.5c0-0.3,0.2-0.5,0.5-0.5c0.3,0,0.5,0.2,0.5,0.5C11.8,27.1,11.5,27.3,11.3,27.3z"/>
	<circle fill="#262626" cx="14.3" cy="26.8" r="1"/>
	<path fill="#262626" d="M17.4,25.8c-0.5,0-1,0.4-1,1c0,0.5,0.4,1,1,1c0.5,0,1-0.4,1-1C18.4,26.3,17.9,25.8,17.4,25.8z M17.4,27.3
		c-0.3,0-0.5-0.2-0.5-0.5c0-0.3,0.2-0.5,0.5-0.5c0.3,0,0.5,0.2,0.5,0.5C17.9,27.1,17.7,27.3,17.4,27.3z"/>
</g>
</svg>
