<?xml version="1.0" encoding="utf-8"?>
<!-- Generator: Adobe Illustrator 18.0.0, SVG Export Plug-In . SVG Version: 6.00 Build 0)  -->
<!DOCTYPE svg PUBLIC "-//W3C//DTD SVG 1.1//EN" "http://www.w3.org/Graphics/SVG/1.1/DTD/svg11.dtd">
<svg version="1.1" id="Layer_1" xmlns="http://www.w3.org/2000/svg" xmlns:xlink="http://www.w3.org/1999/xlink" x="0px" y="0px"
	 width="30px" height="30px" viewBox="0 0 30 30" enable-background="new 0 0 30 30" xml:space="preserve">
<g>
	<path fill="#262626" d="M6.8,2.4H2.4v4.5H4v0.7h1.2V6.8h1.6V5.2h0.7V4H6.8V2.4z M5.6,3.6v2h-2v-2H5.6z"/>
	<path fill="#262626" d="M6.8,23.2H5.2v-0.7H4v0.7H2.4v4.5h4.5V26h0.7v-1.2H6.8V23.2z M3.6,26.4v-2h2v2H3.6z"/>
	<path fill="#262626" d="M23.2,2.4V4h-0.7v1.2h0.7v1.6h1.7v0.7h1.2V6.8h1.6V2.4H23.2z M26.4,3.6v2h-2v-2H26.4z"/>
	<rect x="9.5" y="24.9" fill="#262626" width="2.4" height="1.2"/>
	<rect x="13.8" y="24.9" fill="#262626" width="2.4" height="1.2"/>
	<rect x="18.2" y="24.9" fill="#262626" width="2.5" height="1.2"/>
	<rect x="24.9" y="13.8" fill="#262626" width="1.2" height="2.4"/>
	<rect x="24.9" y="9.5" fill="#262626" width="1.2" height="2.4"/>
	<rect x="24.9" y="18.2" fill="#262626" width="1.2" height="2.5"/>
	<path fill="#262626" d="M26,22.5h-1.2v0.7h-1.6v1.7h-0.7v1.2h0.7v1.6h4.5v-4.4H26V22.5z M24.4,26.4v-2h2v2H24.4z"/>
	<rect x="9.5" y="4" fill="#262626" width="2.4" height="1.2"/>
	<rect x="18.2" y="4" fill="#262626" width="2.5" height="1.2"/>
	<rect x="13.8" y="4" fill="#262626" width="2.4" height="1.2"/>
	<rect x="4" y="18.2" fill="#262626" width="1.2" height="2.5"/>
	<rect x="4" y="13.8" fill="#262626" width="1.2" height="2.4"/>
	<rect x="4" y="9.5" fill="#262626" width="1.2" height="2.4"/>
	<polygon fill="#262626" points="9.1,11.8 10.5,11.8 10.5,10.8 14.2,10.8 14.2,19.8 15.6,19.8 15.6,10.8 19.3,10.8 19.3,11.8 
		20.7,11.8 20.7,9.4 9.1,9.4 	"/>
</g>
</svg>
