<?xml version="1.0" encoding="utf-8"?>
<!-- Generator: Adobe Illustrator 18.0.0, SVG Export Plug-In . SVG Version: 6.00 Build 0)  -->
<!DOCTYPE svg PUBLIC "-//W3C//DTD SVG 1.1//EN" "http://www.w3.org/Graphics/SVG/1.1/DTD/svg11.dtd">
<svg version="1.1" id="Layer_1" xmlns="http://www.w3.org/2000/svg" xmlns:xlink="http://www.w3.org/1999/xlink" x="0px" y="0px"
	 width="30px" height="30px" viewBox="0 0 30 30" enable-background="new 0 0 30 30" xml:space="preserve">
<g>
	<path fill="#262626" d="M27.6,17.2c0-0.4-0.3-0.6-0.6-0.6H3c-0.4,0-0.6,0.3-0.6,0.6s0.3,0.6,0.6,0.6h11.5v3.9l-2.4-2.4
		c-0.2-0.2-0.6-0.2-0.9,0c-0.1,0.1-0.2,0.3-0.2,0.4s0.1,0.3,0.2,0.4l3.5,3.5c0.1,0.1,0.3,0.1,0.4,0.1c0.1,0,0.2-0.1,0.3-0.1
		c0.1,0,0.1-0.1,0.2-0.1l3.4-3.4c0.1-0.1,0.2-0.3,0.2-0.4s-0.1-0.3-0.2-0.4c-0.2-0.2-0.6-0.2-0.9,0l-2.4,2.4v-3.9h11.4
		c0.2,0,0.4-0.1,0.5-0.2C27.7,17.5,27.7,17.3,27.6,17.2z"/>
	<path fill="#262626" d="M3,13.5h24.1c0.2,0,0.5-0.1,0.5-0.6c0-0.4-0.3-0.6-0.6-0.6H15.5V8.4l2.4,2.4c0.2,0.2,0.6,0.2,0.9,0
		c0.2-0.2,0.2-0.6,0-0.9l-3.4-3.4c-0.1-0.1-0.3-0.1-0.4-0.1s-0.3,0-0.4,0.1l-3.4,3.4c-0.2,0.2-0.2,0.6,0,0.9c0.2,0.2,0.6,0.2,0.9,0
		l2.4-2.4v3.9H3c-0.4,0-0.6,0.3-0.6,0.6S2.6,13.5,3,13.5z"/>
</g>
</svg>
