<?xml version="1.0" encoding="utf-8"?>
<!-- Generator: Adobe Illustrator 18.0.0, SVG Export Plug-In . SVG Version: 6.00 Build 0)  -->
<!DOCTYPE svg PUBLIC "-//W3C//DTD SVG 1.1//EN" "http://www.w3.org/Graphics/SVG/1.1/DTD/svg11.dtd">
<svg version="1.1" id="Layer_1" xmlns="http://www.w3.org/2000/svg" xmlns:xlink="http://www.w3.org/1999/xlink" x="0px" y="0px"
	 width="30px" height="30px" viewBox="0 0 30 30" enable-background="new 0 0 30 30" xml:space="preserve">
<path fill="#262626" d="M27.5,9.9c-0.1-0.1-0.4-0.1-0.6,0l-4.7,1.9v-0.2c0-1.3-0.9-2.3-2.1-2.4c0.7-0.6,1.1-1.6,1.1-2.6
	c0-2.1-1.7-3.8-3.8-3.8c-2.1,0-3.8,1.7-3.8,3.8c0,1,0.4,1.9,1.1,2.7h-4.3c0.7-0.7,1.1-1.7,1.1-2.7c0-2.1-1.7-3.8-3.8-3.8
	c-2.1,0-3.8,1.7-3.8,3.8c0,1,0.4,1.9,1.1,2.7c-1.4,0-2.4,1.1-2.4,2.4v8.5c0,1.4,1.1,2.4,2.4,2.4h6.3L8.9,26
	c-0.1,0.2-0.1,0.6,0.1,0.8C9.1,27,9.3,27,9.4,27c0.3,0,0.4-0.1,0.5-0.3l2.4-3.6l2.4,3.7c0.1,0.1,0.2,0.2,0.5,0.2
	c0.1,0,0.2,0,0.4-0.1c0.1-0.1,0.2-0.2,0.2-0.3c0-0.2,0-0.4-0.1-0.6l-2.3-3.5h6.3c1.4,0,2.4-1.1,2.4-2.4V20l4.7,2l0.2,0
	c0.1,0,0.3,0,0.4-0.1c0.1-0.1,0.2-0.2,0.2-0.5v-11C27.7,10.1,27.6,10,27.5,9.9z M26.5,11.3v9.3l-4.3-1.9v-5.5L26.5,11.3z M3.7,11.6
	c0-0.6,0.5-1.2,1.2-1.2h14.9c0.6,0,1.2,0.5,1.2,1.2V20h-0.1v0.1c0,0.6-0.5,1.2-1.2,1.2H4.9c-0.6,0-1.2-0.5-1.2-1.2V11.6z M7.5,9.3
	C6,9.3,4.8,8.1,4.8,6.6S6,3.9,7.5,3.9s2.7,1.2,2.7,2.7S9,9.3,7.5,9.3z M14.6,6.6c0-1.5,1.2-2.7,2.7-2.7c1.5,0,2.6,1.1,2.6,2.7
	c0,1.5-1.2,2.7-2.7,2.7C15.8,9.3,14.6,8.1,14.6,6.6z"/>
</svg>
